<mxfile host="app.diagrams.net" agent="Mozilla/5.0 (Windows NT 10.0; Win64; x64) AppleWebKit/537.36 (KHTML, like Gecko) Chrome/127.0.0.0 Safari/537.36 Edg/127.0.0.0" version="24.7.6">
  <diagram name="Page-1" id="fhFAsCIzdXZGrrx_TjSN">
    <mxGraphModel dx="1026" dy="469" grid="1" gridSize="10" guides="1" tooltips="1" connect="1" arrows="1" fold="1" page="1" pageScale="1" pageWidth="850" pageHeight="1100" math="0" shadow="0">
      <root>
        <mxCell id="0" />
        <mxCell id="1" parent="0" />
        <mxCell id="82fhSveqvJyXGWOy6nE--11" style="edgeStyle=orthogonalEdgeStyle;rounded=0;orthogonalLoop=1;jettySize=auto;html=1;exitX=0.5;exitY=1;exitDx=0;exitDy=0;entryX=0.5;entryY=0;entryDx=0;entryDy=0;" edge="1" parent="1" source="82fhSveqvJyXGWOy6nE--1" target="82fhSveqvJyXGWOy6nE--2">
          <mxGeometry relative="1" as="geometry" />
        </mxCell>
        <mxCell id="82fhSveqvJyXGWOy6nE--1" value="ACTIVE" style="rounded=1;whiteSpace=wrap;html=1;" vertex="1" parent="1">
          <mxGeometry x="70" y="40" width="50" height="20" as="geometry" />
        </mxCell>
        <mxCell id="82fhSveqvJyXGWOy6nE--12" style="edgeStyle=orthogonalEdgeStyle;rounded=0;orthogonalLoop=1;jettySize=auto;html=1;exitX=0.5;exitY=1;exitDx=0;exitDy=0;entryX=0.5;entryY=0;entryDx=0;entryDy=0;" edge="1" parent="1" source="82fhSveqvJyXGWOy6nE--2" target="82fhSveqvJyXGWOy6nE--3">
          <mxGeometry relative="1" as="geometry" />
        </mxCell>
        <mxCell id="82fhSveqvJyXGWOy6nE--2" value="WAITTING FOR PEER" style="rounded=1;whiteSpace=wrap;html=1;" vertex="1" parent="1">
          <mxGeometry x="20" y="70" width="160" height="20" as="geometry" />
        </mxCell>
        <mxCell id="82fhSveqvJyXGWOy6nE--13" style="edgeStyle=orthogonalEdgeStyle;rounded=0;orthogonalLoop=1;jettySize=auto;html=1;exitX=0.5;exitY=1;exitDx=0;exitDy=0;" edge="1" parent="1" source="82fhSveqvJyXGWOy6nE--3" target="82fhSveqvJyXGWOy6nE--4">
          <mxGeometry relative="1" as="geometry" />
        </mxCell>
        <mxCell id="82fhSveqvJyXGWOy6nE--3" value="ACTIVE" style="rounded=1;whiteSpace=wrap;html=1;" vertex="1" parent="1">
          <mxGeometry x="70" y="110" width="50" height="20" as="geometry" />
        </mxCell>
        <mxCell id="82fhSveqvJyXGWOy6nE--14" style="edgeStyle=orthogonalEdgeStyle;rounded=0;orthogonalLoop=1;jettySize=auto;html=1;exitX=0.5;exitY=1;exitDx=0;exitDy=0;entryX=0.5;entryY=0;entryDx=0;entryDy=0;" edge="1" parent="1" source="82fhSveqvJyXGWOy6nE--4" target="82fhSveqvJyXGWOy6nE--5">
          <mxGeometry relative="1" as="geometry" />
        </mxCell>
        <mxCell id="82fhSveqvJyXGWOy6nE--4" value="TUNING" style="rounded=1;whiteSpace=wrap;html=1;" vertex="1" parent="1">
          <mxGeometry x="70" y="140" width="50" height="20" as="geometry" />
        </mxCell>
        <mxCell id="82fhSveqvJyXGWOy6nE--15" style="edgeStyle=orthogonalEdgeStyle;rounded=0;orthogonalLoop=1;jettySize=auto;html=1;exitX=0.5;exitY=1;exitDx=0;exitDy=0;entryX=0.5;entryY=0;entryDx=0;entryDy=0;" edge="1" parent="1" source="82fhSveqvJyXGWOy6nE--5" target="82fhSveqvJyXGWOy6nE--6">
          <mxGeometry relative="1" as="geometry" />
        </mxCell>
        <mxCell id="82fhSveqvJyXGWOy6nE--5" value="TUNED" style="rounded=1;whiteSpace=wrap;html=1;" vertex="1" parent="1">
          <mxGeometry x="70" y="170" width="50" height="20" as="geometry" />
        </mxCell>
        <mxCell id="82fhSveqvJyXGWOy6nE--16" style="edgeStyle=orthogonalEdgeStyle;rounded=0;orthogonalLoop=1;jettySize=auto;html=1;exitX=0.5;exitY=1;exitDx=0;exitDy=0;entryX=0.5;entryY=0;entryDx=0;entryDy=0;" edge="1" parent="1" source="82fhSveqvJyXGWOy6nE--6" target="82fhSveqvJyXGWOy6nE--7">
          <mxGeometry relative="1" as="geometry" />
        </mxCell>
        <mxCell id="82fhSveqvJyXGWOy6nE--6" value="PCS_LOCK" style="rounded=1;whiteSpace=wrap;html=1;" vertex="1" parent="1">
          <mxGeometry x="50" y="200" width="100" height="20" as="geometry" />
        </mxCell>
        <mxCell id="82fhSveqvJyXGWOy6nE--17" style="edgeStyle=orthogonalEdgeStyle;rounded=0;orthogonalLoop=1;jettySize=auto;html=1;exitX=0.5;exitY=1;exitDx=0;exitDy=0;entryX=0.5;entryY=0;entryDx=0;entryDy=0;" edge="1" parent="1" source="82fhSveqvJyXGWOy6nE--7" target="82fhSveqvJyXGWOy6nE--8">
          <mxGeometry relative="1" as="geometry" />
        </mxCell>
        <mxCell id="82fhSveqvJyXGWOy6nE--7" value="PCS_STABLE" style="rounded=1;whiteSpace=wrap;html=1;" vertex="1" parent="1">
          <mxGeometry x="50" y="230" width="100" height="20" as="geometry" />
        </mxCell>
        <mxCell id="82fhSveqvJyXGWOy6nE--18" style="edgeStyle=orthogonalEdgeStyle;rounded=0;orthogonalLoop=1;jettySize=auto;html=1;exitX=0.5;exitY=1;exitDx=0;exitDy=0;entryX=0.5;entryY=0;entryDx=0;entryDy=0;" edge="1" parent="1" source="82fhSveqvJyXGWOy6nE--8" target="82fhSveqvJyXGWOy6nE--9">
          <mxGeometry relative="1" as="geometry" />
        </mxCell>
        <mxCell id="82fhSveqvJyXGWOy6nE--8" value="LINK UP" style="rounded=1;whiteSpace=wrap;html=1;" vertex="1" parent="1">
          <mxGeometry x="60" y="260" width="70" height="20" as="geometry" />
        </mxCell>
        <mxCell id="82fhSveqvJyXGWOy6nE--9" value="PCAL_STOP" style="rounded=1;whiteSpace=wrap;html=1;" vertex="1" parent="1">
          <mxGeometry x="240" y="30" width="100" height="20" as="geometry" />
        </mxCell>
        <mxCell id="82fhSveqvJyXGWOy6nE--26" style="edgeStyle=orthogonalEdgeStyle;rounded=0;orthogonalLoop=1;jettySize=auto;html=1;exitX=0.5;exitY=1;exitDx=0;exitDy=0;entryX=0.5;entryY=0;entryDx=0;entryDy=0;" edge="1" parent="1" source="82fhSveqvJyXGWOy6nE--10" target="82fhSveqvJyXGWOy6nE--20">
          <mxGeometry relative="1" as="geometry" />
        </mxCell>
        <mxCell id="82fhSveqvJyXGWOy6nE--10" value="WAITTING FOR PEER" style="rounded=1;whiteSpace=wrap;html=1;" vertex="1" parent="1">
          <mxGeometry x="210" y="60" width="160" height="20" as="geometry" />
        </mxCell>
        <mxCell id="82fhSveqvJyXGWOy6nE--27" style="edgeStyle=orthogonalEdgeStyle;rounded=0;orthogonalLoop=1;jettySize=auto;html=1;exitX=0.5;exitY=1;exitDx=0;exitDy=0;entryX=0.5;entryY=0;entryDx=0;entryDy=0;" edge="1" parent="1" source="82fhSveqvJyXGWOy6nE--20" target="82fhSveqvJyXGWOy6nE--21">
          <mxGeometry relative="1" as="geometry" />
        </mxCell>
        <mxCell id="82fhSveqvJyXGWOy6nE--20" value="ACTIVE" style="rounded=1;whiteSpace=wrap;html=1;" vertex="1" parent="1">
          <mxGeometry x="265" y="110" width="50" height="20" as="geometry" />
        </mxCell>
        <mxCell id="82fhSveqvJyXGWOy6nE--28" style="edgeStyle=orthogonalEdgeStyle;rounded=0;orthogonalLoop=1;jettySize=auto;html=1;exitX=0.5;exitY=1;exitDx=0;exitDy=0;entryX=0.5;entryY=0;entryDx=0;entryDy=0;" edge="1" parent="1" source="82fhSveqvJyXGWOy6nE--21" target="82fhSveqvJyXGWOy6nE--22">
          <mxGeometry relative="1" as="geometry" />
        </mxCell>
        <mxCell id="82fhSveqvJyXGWOy6nE--21" value="TUNING" style="rounded=1;whiteSpace=wrap;html=1;" vertex="1" parent="1">
          <mxGeometry x="265" y="140" width="50" height="20" as="geometry" />
        </mxCell>
        <mxCell id="82fhSveqvJyXGWOy6nE--29" style="edgeStyle=orthogonalEdgeStyle;rounded=0;orthogonalLoop=1;jettySize=auto;html=1;exitX=0.5;exitY=1;exitDx=0;exitDy=0;entryX=0.5;entryY=0;entryDx=0;entryDy=0;" edge="1" parent="1" source="82fhSveqvJyXGWOy6nE--22" target="82fhSveqvJyXGWOy6nE--23">
          <mxGeometry relative="1" as="geometry" />
        </mxCell>
        <mxCell id="82fhSveqvJyXGWOy6nE--22" value="TUNED" style="rounded=1;whiteSpace=wrap;html=1;" vertex="1" parent="1">
          <mxGeometry x="265" y="170" width="50" height="20" as="geometry" />
        </mxCell>
        <mxCell id="82fhSveqvJyXGWOy6nE--30" style="edgeStyle=orthogonalEdgeStyle;rounded=0;orthogonalLoop=1;jettySize=auto;html=1;exitX=0.5;exitY=1;exitDx=0;exitDy=0;entryX=0.5;entryY=0;entryDx=0;entryDy=0;" edge="1" parent="1" source="82fhSveqvJyXGWOy6nE--23" target="82fhSveqvJyXGWOy6nE--24">
          <mxGeometry relative="1" as="geometry" />
        </mxCell>
        <mxCell id="82fhSveqvJyXGWOy6nE--23" value="PCS_LOCK" style="rounded=1;whiteSpace=wrap;html=1;" vertex="1" parent="1">
          <mxGeometry x="245" y="200" width="100" height="20" as="geometry" />
        </mxCell>
        <mxCell id="82fhSveqvJyXGWOy6nE--31" style="edgeStyle=orthogonalEdgeStyle;rounded=0;orthogonalLoop=1;jettySize=auto;html=1;exitX=0.5;exitY=1;exitDx=0;exitDy=0;entryX=0.5;entryY=0;entryDx=0;entryDy=0;" edge="1" parent="1" source="82fhSveqvJyXGWOy6nE--24" target="82fhSveqvJyXGWOy6nE--25">
          <mxGeometry relative="1" as="geometry" />
        </mxCell>
        <mxCell id="82fhSveqvJyXGWOy6nE--24" value="PCS_STABLE" style="rounded=1;whiteSpace=wrap;html=1;" vertex="1" parent="1">
          <mxGeometry x="245" y="230" width="100" height="20" as="geometry" />
        </mxCell>
        <mxCell id="82fhSveqvJyXGWOy6nE--38" style="edgeStyle=orthogonalEdgeStyle;rounded=0;orthogonalLoop=1;jettySize=auto;html=1;exitX=0.5;exitY=1;exitDx=0;exitDy=0;entryX=0.5;entryY=0;entryDx=0;entryDy=0;" edge="1" parent="1" source="82fhSveqvJyXGWOy6nE--25" target="82fhSveqvJyXGWOy6nE--36">
          <mxGeometry relative="1" as="geometry">
            <Array as="points">
              <mxPoint x="290" y="300" />
              <mxPoint x="380" y="300" />
              <mxPoint x="380" y="210" />
              <mxPoint x="454" y="210" />
            </Array>
          </mxGeometry>
        </mxCell>
        <mxCell id="82fhSveqvJyXGWOy6nE--25" value="LINK UP" style="rounded=1;whiteSpace=wrap;html=1;" vertex="1" parent="1">
          <mxGeometry x="255" y="260" width="70" height="20" as="geometry" />
        </mxCell>
        <mxCell id="82fhSveqvJyXGWOy6nE--35" style="edgeStyle=orthogonalEdgeStyle;rounded=0;orthogonalLoop=1;jettySize=auto;html=1;exitX=0.5;exitY=1;exitDx=0;exitDy=0;entryX=0.5;entryY=0;entryDx=0;entryDy=0;" edge="1" parent="1" source="82fhSveqvJyXGWOy6nE--36" target="82fhSveqvJyXGWOy6nE--37">
          <mxGeometry relative="1" as="geometry" />
        </mxCell>
        <mxCell id="82fhSveqvJyXGWOy6nE--36" value="PCS_STABLE" style="rounded=1;whiteSpace=wrap;html=1;" vertex="1" parent="1">
          <mxGeometry x="404" y="230" width="100" height="20" as="geometry" />
        </mxCell>
        <mxCell id="82fhSveqvJyXGWOy6nE--37" value="LINK UP" style="rounded=1;whiteSpace=wrap;html=1;" vertex="1" parent="1">
          <mxGeometry x="414" y="260" width="70" height="20" as="geometry" />
        </mxCell>
      </root>
    </mxGraphModel>
  </diagram>
</mxfile>
